# xmcd
#
# Track frame offsets:
#	150
#	19714
#	43255
#	69642
#	89371
#	111644
#	132401
#	148653
#	170276
#	190341
#	213020
#	231805
#	254065
#	286542
#	306964
#	329447
#
# Disc length: 4778 seconds
#
# Revision: 7
# Processed by: cddbd v1.5.2PL0 Copyright (c) Steve Scherf et al.
# Submitted via: EZCDAudioConverter 6.0.0.1
#
DISCID=f212a810
DTITLE=Various Artist - Akella Presents - vol.78 - Modern Electric Blues  CD1
DYEAR=2016
DGENRE=Blues
TTITLE0=Southside Johnny and the Asbury Jukes - Strange Strange Feeling
TTITLE1=RJ Mischo - Two Hours From Tulsa
TTITLE2=Bargel and Heuser - Don Quijote
TTITLE3=Woodleg Odds - Times Are Changin'
TTITLE4=Paul Reddick - Mourning Dove
TTITLE5=Pee Wee Bluesgang - Trouble
TTITLE6=Final Step Blues Band - Last Day
TTITLE7=Southside Slim - Mighty Fine Woman
TTITLE8=Ken Saydak - Ain't Found The Answer Yet
TTITLE9=ACME Blues Company - Liquor Store
TTITLE10=Muskee - Brother Booze
TTITLE11=Johnny Jones - I Was Raised On The Blues
TTITLE12=Mike Farris - Folsom Prison Blues
TTITLE13=Albert Castiglia - Drowning At The Bottom
TTITLE14=Joe Lewis Band - If Not For Mercy
TTITLE15=145th Street - Before Its Time
EXTD=
EXTT0=
EXTT1=
EXTT2=
EXTT3=
EXTT4=
EXTT5=
EXTT6=
EXTT7=
EXTT8=
EXTT9=
EXTT10=
EXTT11=
EXTT12=
EXTT13=
EXTT14=
EXTT15=
PLAYORDER=
